#!OML:ASF E:\motion texture\Top Level 1\Subject 1\Session 1\male.ASF
:FULLY-SPECIFIED
:DEGREES
289
root 1.60199 18.0766 4.3862 20.8324 -59.9237 -12.7132
lowerback 0.771557 6.4182 3.57072
upperback -1.51813 8.62152 0.0662359
thorax -1.47933 4.26172 -2.04124
lowerneck -12.2562 -13.0557 -13.1296
upperneck 7.54713 -18.0308 19.1498
head 7.36912 -8.04323 6.12967
rclavicle 3.4514e-014 1.31198e-014
rhumerus 23.7219 -6.97807 -50.9504
rradius 41.9175
rwrist 3.19408
rhand -12.9063 -45.8717
rfingers 7.12502
rthumb 13.1835 -75.4349
lclavicle 3.4514e-014 1.31198e-014
lhumerus -54.0986 26.8723 53.068
lradius 26.3207
lwrist -14.4953
lhand -9.04486 29.4066
lfingers 7.12502
lthumb 16.9033 58.691
rfemur -21.6153 -4.48256 33.9194
rtibia 19.1913
rfoot -5.1265 -17.2911
rtoes 24.4521
lfemur -21.6674 -10.3294 -5.44548
ltibia 51.7612
lfoot 0.612689 -8.87714
ltoes -17.8877
290
root 1.43057 18.0878 4.40971 21.3269 -60.5463 -13.2921
lowerback 0.676029 6.45384 3.61575
upperback -1.53929 8.66617 0.0946394
thorax -1.44321 4.28397 -2.02613
lowerneck -12.2877 -12.9309 -13.0479
upperneck 7.65616 -17.8829 19.121
head 7.37395 -7.96738 6.13268
rclavicle 4.08999e-014 -3.37934e-015
rhumerus 22.3615 -6.17741 -51.2464
rradius 43.1212
rwrist 3.62313
rhand -13.5533 -45.7892
rfingers 7.12502
rthumb 12.5598 -75.3917
lclavicle 4.08999e-014 -3.37934e-015
lhumerus -54.1483 26.9205 53.4714
lradius 26.2355
lwrist -15.0396
lhand -8.7315 28.9883
lfingers 7.12502
lthumb 17.2049 58.2467
rfemur -20.7299 -4.10879 34.2936
rtibia 18.8665
rfoot -5.40472 -16.9114
rtoes 24.1819
lfemur -22.3905 -10.0533 -5.33691
ltibia 52.0938
lfoot 0.30413 -8.36921
ltoes -17.8924
291
root 1.2605 18.0977 4.43322 21.8464 -61.1927 -13.8878
lowerback 0.579484 6.49045 3.65985
upperback -1.5606 8.71188 0.118632
thorax -1.40605 4.30677 -2.01472
lowerneck -12.3251 -12.7978 -12.9626
upperneck 7.77183 -17.7223 19.0802
head 7.37823 -7.88545 6.13302
rclavicle -5.88403e-014 -1.80894e-014
rhumerus 20.9828 -5.37246 -51.6327
rradius 44.2813
rwrist 4.06304
rhand -14.17 -45.6847
rfingers 7.12502
rthumb 11.9652 -75.3228
lclavicle -5.88403e-014 -1.80894e-014
lhumerus -54.1511 26.9369 53.9349
lradius 26.1698
lwrist -15.5692
lhand -8.4105 28.5382
lfingers 7.12502
lthumb 17.5138 57.7693
rfemur -19.8462 -3.7474 34.6502
rtibia 18.5386
rfoot -5.67244 -16.5133
rtoes 23.9043
lfemur -23.1003 -9.76257 -5.25295
ltibia 52.3125
lfoot -0.0455875 -7.84322
ltoes -17.8521
292
root 1.09175 18.1065 4.4567 22.3937 -61.8615 -14.5025
lowerback 0.482332 6.52802 3.70229
upperback -1.58273 8.75866 0.139125
thorax -1.36902 4.33009 -2.00579
lowerneck -12.3677 -12.6564 -12.8755
upperneck 7.89352 -17.5487 19.0278
head 7.38185 -7.79743 6.13115
rclavicle -5.46658e-014 -9.14409e-015
rhumerus 19.5889 -4.56398 -52.1032
rradius 45.3805
rwrist 4.51393
rhand -14.7477 -45.5638
rfingers 7.12502
rthumb 11.4081 -75.2335
lclavicle -5.46658e-014 -9.14409e-015
lhumerus -54.108 26.9224 54.4539
lradius 26.122
lwrist -16.0864
lhand -8.0849 28.0556
lfingers 7.12502
lthumb 17.8271 57.2585
rfemur -18.9669 -3.39535 34.9882
rtibia 18.2114
rfoot -5.93163 -16.1002
rtoes 23.6247
lfemur -23.795 -9.45926 -5.19171
ltibia 52.4141
lfoot -0.431285 -7.29941
ltoes -17.7605
293
root 0.924255 18.1141 4.48017 22.972 -62.5511 -15.1396
lowerback 0.384867 6.56679 3.74458
upperback -1.60551 8.80687 0.156054
thorax -1.33185 4.35411 -2.00022
lowerneck -12.4172 -12.5077 -12.7853
upperneck 8.02223 -17.3637 18.9626
head 7.38551 -7.70397 6.12602
rclavicle 2.13694e-015 -1.17283e-014
rhumerus 18.1848 -3.755 -52.6534
rradius 46.4004
rwrist 4.97741
rhand -15.2815 -45.4265
rfingers 7.12502
rthumb 10.8932 -75.124
lclavicle 2.13694e-015 -1.17283e-014
lhumerus -54.0181 26.8795 55.0213
lradius 26.0899
lwrist -16.5957
lhand -7.75564 27.5425
lfingers 7.12502
lthumb 18.1439 56.7163
rfemur -18.0948 -3.05203 35.3073
rtibia 17.8893
rfoot -6.18219 -15.6723
rtoes 23.3299
lfemur -24.4716 -9.14464 -5.15179
ltibia 52.3952
lfoot -0.849361 -6.73819
ltoes -17.6224
294
root 0.757925 18.1204 4.50359 23.5841 -63.2599 -15.8029
lowerback 0.287835 6.60657 3.78579
upperback -1.62865 8.8563 0.171245
thorax -1.29509 4.37872 -1.99576
lowerneck -12.4735 -12.3523 -12.6944
upperneck 8.15756 -17.1674 18.8849
head 7.38942 -7.6052 6.1181
rclavicle 6.84316e-014 -2.0276e-014
rhumerus 16.7744 -2.947 -53.2778
rradius 47.3255
rwrist 5.45175
rhand -15.7701 -45.2757
rfingers 7.12502
rthumb 10.4219 -74.9974
lclavicle 6.84316e-014 -2.0276e-014
lhumerus -53.8831 26.8083 55.634
lradius 26.0732
lwrist -17.0966
lhand -7.42901 27.0002
lfingers 7.12502
lthumb 18.4582 56.1445
rfemur -17.2301 -2.71611 35.6077
rtibia 17.5748
rfoot -6.42567 -15.2326
rtoes 23.0285
lfemur -25.1266 -8.82017 -5.13108
ltibia 52.2536
lfoot -1.29422 -6.163
ltoes -17.4376
295
root 0.592783 18.1255 4.52705 24.2316 -63.9848 -16.4918
lowerback 0.190576 6.64612 3.82739
upperback -1.6526 8.90528 0.183527
thorax -1.25853 4.40306 -1.99431
lowerneck -12.5385 -12.1899 -12.6002
upperneck 8.3003 -16.9599 18.7942
head 7.39398 -7.50099 6.10668
rclavicle -7.32522e-014 -1.66979e-014
rhumerus 15.3598 -2.14437 -53.9756
rradius 48.146
rwrist 5.93769
rhand -16.2082 -45.1076
rfingers 7.12502
rthumb 9.99927 -74.8501
lclavicle -7.32522e-014 -1.66979e-014
lhumerus -53.7051 26.7113 56.2831
lradius 26.0717
lwrist -17.5901
lhand -7.10788 26.4338
lfingers 7.12502
lthumb 18.7671 55.5485
rfemur -16.3782 -2.39439 35.8875
rtibia 17.2727
rfoot -6.66506 -14.7778
rtoes 22.7206
lfemur -25.7608 -8.48879 -5.12939
ltibia 51.989
lfoot -1.76036 -5.57449
ltoes -17.209
296
root 0.428665 18.1293 4.55044 24.9229 -64.7248 -17.216
lowerback 0.0948049 6.68578 3.87065
upperback -1.67817 8.95437 0.193424
thorax -1.2238 4.42737 -1.99631
lowerneck -12.6115 -12.0206 -12.5028
upperneck 8.45038 -16.7415 18.6919
head 7.39933 -7.39153 6.09211
rclavicle -1.39149e-015 -7.95139e-016
rhumerus 13.9423 -1.34943 -54.7437
rradius 48.8506
rwrist 6.43236
rhand -16.5963 -44.9234
rfingers 7.12502
rthumb 9.62482 -74.6836
lclavicle -1.39149e-015 -7.95139e-016
lhumerus -53.4862 26.5856 56.9629
lradius 26.086
lwrist -18.0737
lhand -6.79682 25.8493
lfingers 7.12502
lthumb 19.0662 54.9347
rfemur -15.5385 -2.08052 36.1493
rtibia 16.9841
rfoot -6.90136 -14.3127
rtoes 22.411
lfemur -26.3716 -8.14894 -5.141
ltibia 51.6025
lfoot -2.24416 -4.97525
ltoes -16.944
297
root 0.265496 18.1318 4.57375 25.6649 -65.4785 -17.9817
lowerback -0.00265594 6.72582 3.91441
upperback -1.70402 9.00378 0.202776
thorax -1.1882 4.45182 -1.99877
lowerneck -12.6937 -11.8449 -12.4017
upperneck 8.60635 -16.5126 18.5766
head 7.40519 -7.27696 6.07381
rclavicle 5.5113e-014 1.11319e-014
rhumerus 12.5248 -0.566242 -55.5755
rradius 49.4312
rwrist 6.93426
rhand -16.9353 -44.7258
rfingers 7.12502
rthumb 9.29778 -74.5008
lclavicle 5.5113e-014 1.11319e-014
lhumerus -53.228 26.436 57.6678
lradius 26.116
lwrist -18.549
lhand -6.49604 25.2504
lfingers 7.12502
lthumb 19.3555 54.3072
rfemur -14.7138 -1.77611 36.3939
rtibia 16.7116
rfoot -7.13602 -13.8364
rtoes 22.0931
lfemur -26.9585 -7.8013 -5.16241
ltibia 51.0943
lfoot -2.73752 -4.36821
ltoes -16.6545
298
root 0.103065 18.1331 4.59695 26.4583 -66.2409 -18.7912
lowerback -0.0939751 6.76374 3.96292
upperback -1.7342 9.05063 0.207698
thorax -1.15919 4.4747 -2.00922
lowerneck -12.782 -11.6613 -12.2939
upperneck 8.76899 -16.2727 18.4528
head 7.41154 -7.15699 6.05295
rclavicle -3.60297e-014 -3.97569e-016
rhumerus 11.1034 0.202908 -56.476
rradius 49.8812
rwrist 7.44333
rhand -17.2267 -44.5097
rfingers 7.12502
rthumb 9.01662 -74.297
lclavicle -3.60297e-014 -3.97569e-016
lhumerus -52.9367 26.2528 58.3874
lradius 26.1647
lwrist -19.0056
lhand -6.21452 24.6508
lfingers 7.12502
lthumb 19.6261 53.6801
rfemur -13.9016 -1.48234 36.6209
rtibia 16.4539
rfoot -7.36951 -13.3511
rtoes 21.7697
lfemur -27.5172 -7.4504 -5.19105
ltibia 50.4623
lfoot -3.23012 -3.76118
ltoes -16.3704
299
root -0.0586948 18.1332 4.61997 27.3095 -67.0095 -19.6503
lowerback -0.185184 6.799 4.01166
upperback -1.76479 9.09381 0.213087
thorax -1.13087 4.49571 -2.01929
lowerneck -12.8793 -11.4705 -12.1831
upperneck 8.93644 -16.0215 18.3196
head 7.41854 -7.0315 6.02965
rclavicle -3.63279e-014 -1.15295e-014
rhumerus 9.68625 0.95692 -57.4331
rradius 50.1947
rwrist 7.95532
rhand -17.4715 -44.2768
rfingers 7.12502
rthumb 8.78034 -74.0741
lclavicle -3.63279e-014 -1.15295e-014
lhumerus -52.6151 26.0484 59.1157
lradius 26.2309
lwrist -19.4492
lhand -5.94945 24.0499
lfingers 7.12502
lthumb 19.881 53.053
rfemur -13.1043 -1.19902 36.8311
rtibia 16.2135
rfoot -7.60243 -12.858
rtoes 21.4396
lfemur -28.0488 -7.09829 -5.22359
ltibia 49.7105
lfoot -3.71729 -3.16003
ltoes -16.098
300
root -0.219869 18.1321 4.64278 28.2253 -67.7804 -20.5654
lowerback -0.276075 6.83225 4.06157
upperback -1.79733 9.13426 0.217859
thorax -1.10459 4.51525 -2.03072
lowerneck -12.9818 -11.2734 -12.0655
upperneck 9.10656 -15.7611 18.1771
head 7.425 -6.90167 6.00321
rclavicle 9.4373e-014 -1.19271e-015
rhumerus 8.27026 1.68711 -58.4436
rradius 50.3659
rwrist 8.47101
rhand -17.6685 -44.0279
rfingers 7.12502
rthumb 8.59025 -73.8331
lclavicle 9.4373e-014 -1.19271e-015
lhumerus -52.2642 25.8174 59.8475
lradius 26.3142
lwrist -19.8763
lhand -5.70553 23.4548
lfingers 7.12502
lthumb 20.1154 52.4334
rfemur -12.3243 -0.925864 37.0254
rtibia 15.9927
rfoot -7.83497 -12.3585
rtoes 21.104
lfemur -28.5548 -6.74721 -5.25694
ltibia 48.8444
lfoot -4.19661 -2.57441
ltoes -15.8559
301
root -0.380619 18.1298 4.66533 29.2094 -68.5506 -21.5411
lowerback -0.365196 6.86067 4.11287
upperback -1.83123 9.16826 0.222807
thorax -1.08089 4.53144 -2.04305
lowerneck -13.0927 -11.0689 -11.9432
upperneck 9.28084 -15.4897 18.0272
head 7.43214 -6.76641 5.97464
rclavicle -5.55106e-014 -2.3059e-014
rhumerus 6.86117 2.39451 -59.5045
rradius 50.3912
rwrist 8.98666
rhand -17.8196 -43.7655
rfingers 7.12502
rthumb 8.44439 -73.5767
lclavicle -5.55106e-014 -2.3059e-014
lhumerus -51.8905 25.564 60.5745
lradius 26.4163
lwrist -20.282
lhand -5.48723 22.8712
lfingers 7.12502
lthumb 20.3252 51.8276
rfemur -11.5617 -0.662898 37.204
rtibia 15.7937
rfoot -8.06814 -11.8543
rtoes 20.7608
lfemur -29.0333 -6.3997 -5.28939
ltibia 47.8675
lfoot -4.64992 -2.01026
ltoes -15.6335
302
root -0.541077 18.1264 4.68757 30.2643 -69.3165 -22.5811
lowerback -0.455128 6.88526 4.1622
upperback -1.86447 9.19695 0.229646
thorax -1.05697 4.54501 -2.0523
lowerneck -13.2097 -10.8585 -11.8162
upperneck 9.45566 -15.2092 17.8702
head 7.43883 -6.62686 5.94384
rclavicle 1.42827e-013 6.75868e-015
rhumerus 5.45903 3.06953 -60.6068
rradius 50.2682
rwrist 9.50198
rhand -17.9284 -43.4896
rfingers 7.12502
rthumb 8.33947 -73.3049
lclavicle 1.42827e-013 6.75868e-015
lhumerus -51.4937 25.2899 61.2939
lradius 26.5352
lwrist -20.6664
lhand -5.29289 22.3029
lfingers 7.12502
lthumb 20.512 51.2393
rfemur -10.8162 -0.409938 37.3668
rtibia 15.6176
rfoot -8.30257 -11.3479
rtoes 20.4109
lfemur -29.4836 -6.05958 -5.31926
ltibia 46.7872
lfoot -5.06455 -1.47473
ltoes -15.401
303
root -0.701359 18.1218 4.70944 31.3948 -70.075 -23.6904
lowerback -0.543683 6.90419 4.21049
upperback -1.89807 9.21805 0.237829
thorax -1.03502 4.55471 -2.05995
lowerneck -13.3332 -10.6415 -11.6833
upperneck 9.63218 -14.919 17.7063
head 7.44547 -6.48269 5.9107
rclavicle -5.09883e-014 2.42517e-014
rhumerus 4.06572 3.70562 -61.75
rradius 49.9946
rwrist 10.0171
rhand -17.9941 -43.1986
rfingers 7.12502
rthumb 8.27607 -73.0165
lclavicle -5.09883e-014 2.42517e-014
lhumerus -51.0791 24.9954 61.9981
lradius 26.672
lwrist -21.0245
lhand -5.12702 21.7592
lfingers 7.12502
lthumb 20.6714 50.6784
rfemur -10.0891 -0.167594 37.5142
rtibia 15.4671
rfoot -8.53888 -10.8399
rtoes 20.0562
lfemur -29.9062 -5.7312 -5.34435
ltibia 45.6132
lfoot -5.44451 -0.975789
ltoes -15.1857
